<svg width="26" height="26" viewBox="0 0 26 26" fill="none" xmlns="http://www.w3.org/2000/svg">
<path d="M24.9999 14.0533C24.7901 16.3229 23.9384 18.4859 22.5442 20.2891C21.15 22.0922 19.2712 23.4611 17.1275 24.2354C14.9838 25.0097 12.6638 25.1575 10.4392 24.6615C8.21456 24.1654 6.17719 23.0461 4.5655 21.4344C2.95381 19.8227 1.83445 17.7853 1.33841 15.5607C0.842369 13.336 0.990156 11.0161 1.76448 8.8724C2.53881 6.72868 3.90764 4.84982 5.71082 3.45567C7.514 2.06152 9.67693 1.20974 11.9465 1C10.6178 2.79769 9.97833 5.0126 10.1446 7.24189C10.3108 9.47117 11.2717 11.5667 12.8524 13.1475C14.4331 14.7282 16.5287 15.689 18.758 15.8553C20.9873 16.0215 23.2022 15.3821 24.9999 14.0533Z" stroke="#07070A" stroke-width="1.875" stroke-linecap="round" stroke-linejoin="round"/>
</svg>
