<svg width="20" height="16" viewBox="0 0 20 16" fill="none" xmlns="http://www.w3.org/2000/svg">
<path fill-rule="evenodd" clip-rule="evenodd" d="M0 1.2C0 0.537258 0.537258 0 1.2 0H18.8C19.4627 0 20 0.537258 20 1.2C20 1.86274 19.4627 2.4 18.8 2.4H1.2C0.537258 2.4 0 1.86274 0 1.2Z"/>
<path fill-rule="evenodd" clip-rule="evenodd" d="M0 7.60002C0 6.93728 0.537258 6.40002 1.2 6.40002H18.8C19.4627 6.40002 20 6.93728 20 7.60002C20 8.26277 19.4627 8.80002 18.8 8.80002H1.2C0.537258 8.80002 0 8.26277 0 7.60002Z"/>
<path fill-rule="evenodd" clip-rule="evenodd" d="M0 14C0 13.3373 0.537258 12.8 1.2 12.8H18.8C19.4627 12.8 20 13.3373 20 14C20 14.6628 19.4627 15.2 18.8 15.2H1.2C0.537258 15.2 0 14.6628 0 14Z"/>
</svg>
