<svg width="20" height="20" viewBox="0 0 20 20" fill="none" xmlns="http://www.w3.org/2000/svg">
<path d="M16.6667 9.99967C16.6653 9.50692 16.6094 9.01592 16.5 8.53551L18.5625 6.41634L17.0275 3.93551L14.2133 4.83301C13.6058 4.33937 12.9162 3.95657 12.1758 3.70217L11.4583 0.833008H8.54166L7.82417 3.70384C7.08399 3.95773 6.3943 4.33996 5.78667 4.83301L2.9725 3.93551L1.4375 6.41634L3.5 8.53551C3.27778 9.49901 3.27778 10.5003 3.5 11.4638L1.4375 13.583L2.9725 16.063L5.78667 15.1663C6.39418 15.66 7.08388 16.0428 7.82417 16.2972L8.54166 19.1663H11.4583L12.1758 16.2955C12.916 16.0416 13.6057 15.6594 14.2133 15.1663L17.0275 16.0655L18.5625 13.583L16.5 11.4638C16.6094 10.9834 16.6653 10.4924 16.6667 9.99967Z" stroke-width="1.5" stroke-linejoin="round"/>
<path d="M9.99984 13.3327C11.8408 13.3327 13.3332 11.8403 13.3332 9.99935C13.3332 8.1584 11.8408 6.66602 9.99984 6.66602C8.15889 6.66602 6.6665 8.1584 6.6665 9.99935C6.6665 11.8403 8.15889 13.3327 9.99984 13.3327Z" stroke-width="1.5" stroke-linejoin="round"/>
</svg>
