<svg width="25" height="18" viewBox="0 0 25 18" fill="none" xmlns="http://www.w3.org/2000/svg">
<path d="M1.24198 12.1621L5.90865 16.8288C6.01743 16.9375 6.14656 17.0238 6.28869 17.0827C6.43081 17.1416 6.58315 17.1719 6.73698 17.1719C7.04766 17.1719 7.34562 17.0485 7.56531 16.8288C7.785 16.6091 7.90842 16.3111 7.90842 16.0004C7.90842 15.6897 7.785 15.3918 7.56531 15.1721L4.88198 12.5004L18.4036 12.5004C18.7131 12.5004 19.0098 12.3775 19.2286 12.1587C19.4474 11.9399 19.5703 11.6432 19.5703 11.3338C19.5703 11.0243 19.4474 10.7276 19.2286 10.5088C19.0098 10.29 18.7131 10.1671 18.4036 10.1671L2.07032 10.1671C1.83999 10.1682 1.61515 10.2376 1.42414 10.3663C1.23314 10.495 1.0845 10.6774 0.996981 10.8904C0.907637 11.1029 0.883229 11.3371 0.926833 11.5634C0.970435 11.7897 1.0801 11.998 1.24198 12.1621ZM6.73698 7.83377L23.0703 7.83377C23.3006 7.83262 23.5255 7.76332 23.7165 7.63459C23.9075 7.50587 24.0561 7.32349 24.1436 7.11043C24.233 6.89797 24.2574 6.66381 24.2138 6.43749C24.1702 6.21116 24.0605 6.00283 23.8986 5.83877L19.232 1.1721C19.1235 1.06275 18.9945 0.975956 18.8523 0.916727C18.7102 0.857496 18.5577 0.827003 18.4036 0.827003C18.2496 0.827003 18.0971 0.857496 17.955 0.916727C17.8128 0.975955 17.6838 1.06275 17.5753 1.1721C17.466 1.28056 17.3792 1.40959 17.3199 1.55176C17.2607 1.69393 17.2302 1.84642 17.2302 2.00043C17.2302 2.15445 17.2607 2.30694 17.3199 2.44911C17.3792 2.59128 17.466 2.72031 17.5753 2.82877L20.2586 5.50043L6.73698 5.50043C6.42756 5.50043 6.13081 5.62335 5.91202 5.84214C5.69323 6.06093 5.57031 6.35768 5.57031 6.6671C5.57031 6.97652 5.69323 7.27326 5.91202 7.49206C6.13081 7.71085 6.42756 7.83377 6.73698 7.83377Z" fill="#A2A0F4"/>
</svg>
